{
  "source": "C:\\Users\\Peter\\Desktop\\stuff\\MIUN\\quantitative_research\\video_compression\\videos\\UVG\\ReadySteadyGo_1920x1080_120fps_420_8bit_YUV.y4m",
  "output": "C:\\Users\\Peter\\Desktop\\stuff\\MIUN\\quantitative_research\\video_compression\\compressed_videos\\UVG\\h264\\3\\ReadySteadyGo_1920x1080_120fps_420_8bit_YUV_h264.mp4",
  "codec": "h264",
  "ok": "[yuv4mpegpipe @ 00000222a6046640] Stream #0: not enough frames to estimate rate; consider increasing probesize\nInput #0, yuv4mpegpipe, from 'C:\\Users\\Peter\\Desktop\\stuff\\MIUN\\quantitative_research\\video_compression\\videos\\UVG\\ReadySteadyGo_1920x1080_120fps_420_8bit_YUV.y4m':\n  Duration: 00:00:05.00, start: 0.000000, bitrate: 2985989 kb/s\n  Stream #0:0: Video: rawvideo (I420 / 0x30323449), yuv420p(progressive), 1920x1080, 120 fps, 120 tbr, 120 tbn\n[out#0/mp4 @ 00000222a6049a00] Codec AVOption b:a (set bitrate (in bits/s)) has not been used for any stream. The most likely reason is either wrong type (e.g. a video option with no video streams) or that it is a private option of some decoder which was not actually used for any stream.\nStream mapping:\n  Stream #0:0 -> #0:0 (rawvideo (native) -> h264 (libx264))\nPress [q] to stop, [?] for help\n[libx264 @ 00000222a604cac0] using cpu capabilities: MMX2 SSE2Fast SSSE3 SSE4.2 AVX FMA3 BMI2 AVX2\n[libx264 @ 00000222a604cac0] profile High, level 5.1, 4:2:0, 8-bit\n[libx264 @ 00000222a604cac0] 264 - core 165 r3222 b35605a - H.264/MPEG-4 AVC codec - Copyleft 2003-2025 - http://www.videolan.org/x264.html - options: cabac=1 ref=5 deblock=1:0:0 analyse=0x3:0x113 me=hex subme=8 psy=1 psy_rd=1.00:0.00 mixed_ref=1 me_range=16 chroma_me=1 trellis=2 8x8dct=1 cqm=0 deadzone=21,11 fast_pskip=1 chroma_qp_offset=-2 threads=18 lookahead_threads=3 sliced_threads=0 nr=0 decimate=1 interlaced=0 bluray_compat=0 constrained_intra=0 bframes=3 b_pyramid=2 b_adapt=1 b_bias=0 direct=3 weightb=1 open_gop=0 weightp=2 keyint=250 keyint_min=25 scenecut=40 intra_refresh=0 rc_lookahead=50 rc=cbr mbtree=1 bitrate=3000 ratetol=1.0 qcomp=0.60 qpmin=0 qpmax=69 qpstep=4 vbv_maxrate=3000 vbv_bufsize=3000 nal_hrd=none filler=0 ip_ratio=1.40 aq=1:1.00\nOutput #0, mp4, to 'C:\\Users\\Peter\\Desktop\\stuff\\MIUN\\quantitative_research\\video_compression\\compressed_videos\\UVG\\h264\\3\\ReadySteadyGo_1920x1080_120fps_420_8bit_YUV_h264.mp4':\n  Metadata:\n    encoder         : Lavf62.3.100\n  Stream #0:0: Video: h264 (avc1 / 0x31637661), yuv420p(tv, progressive), 1920x1080, q=2-31, 3000 kb/s, 120 fps, 15360 tbn\n    Metadata:\n      encoder         : Lavc62.11.100 libx264\n    Side data:\n      cpb: bitrate max/min/avg: 3000000/0/3000000 buffer size: 3000000 vbv_delay: N/A\nframe=    0 fps=0.0 q=0.0 size=       0KiB time=N/A bitrate=N/A speed=N/A elapsed=0:00:00.51    \nframe=    0 fps=0.0 q=0.0 size=       0KiB time=N/A bitrate=N/A speed=N/A elapsed=0:00:01.04    \nframe=    0 fps=0.0 q=0.0 size=       0KiB time=N/A bitrate=N/A speed=N/A elapsed=0:00:01.55    \nframe=   16 fps=7.7 q=44.0 size=       0KiB time=00:00:00.11 bitrate=   3.3kbits/s speed=0.0562x elapsed=0:00:02.07    \nframe=   36 fps= 14 q=43.0 size=       0KiB time=00:00:00.28 bitrate=   1.4kbits/s speed=0.109x elapsed=0:00:02.59    \nframe=   56 fps= 18 q=43.0 size=       0KiB time=00:00:00.43 bitrate=   0.9kbits/s speed=0.139x elapsed=0:00:03.12    \nframe=   72 fps= 20 q=42.0 size=       0KiB time=00:00:00.58 bitrate=   0.7kbits/s speed=0.16x elapsed=0:00:03.65    \nframe=   92 fps= 22 q=42.0 size=       0KiB time=00:00:00.75 bitrate=   0.5kbits/s speed=0.179x elapsed=0:00:04.18    \nframe=  108 fps= 23 q=43.0 size=     256KiB time=00:00:00.88 bitrate=2374.6kbits/s speed=0.188x elapsed=0:00:04.69    \nframe=  124 fps= 24 q=44.0 size=     256KiB time=00:00:01.01 bitrate=2063.1kbits/s speed=0.195x elapsed=0:00:05.21    \nframe=  143 fps= 25 q=44.0 size=     256KiB time=00:00:01.17 bitrate=1785.1kbits/s speed=0.205x elapsed=0:00:05.73    \nframe=  160 fps= 26 q=44.0 size=     256KiB time=00:00:01.30 bitrate=1603.2kbits/s speed=0.209x elapsed=0:00:06.24    \nframe=  173 fps= 26 q=45.0 size=     512KiB time=00:00:01.42 bitrate=2943.6kbits/s speed=0.21x elapsed=0:00:06.77    \nframe=  193 fps= 26 q=45.0 size=     512KiB time=00:00:01.59 bitrate=2635.4kbits/s speed=0.218x elapsed=0:00:07.30    \nframe=  211 fps= 27 q=45.0 size=     512KiB time=00:00:01.72 bitrate=2431.7kbits/s speed=0.22x elapsed=0:00:07.82    \nframe=  227 fps= 27 q=46.0 size=     512KiB time=00:00:01.87 bitrate=2237.2kbits/s speed=0.224x elapsed=0:00:08.35    \nframe=  237 fps= 27 q=47.0 size=     768KiB time=00:00:01.95 bitrate=3212.9kbits/s speed=0.22x elapsed=0:00:08.88    \nframe=  254 fps= 27 q=48.0 size=     768KiB time=00:00:02.10 bitrate=2996.1kbits/s speed=0.223x elapsed=0:00:09.40    \nframe=  270 fps= 27 q=49.0 size=     768KiB time=00:00:02.23 bitrate=2817.2kbits/s speed=0.225x elapsed=0:00:09.92    \nframe=  287 fps= 28 q=49.0 size=     768KiB time=00:00:02.37 bitrate=2649.2kbits/s speed=0.228x elapsed=0:00:10.43    \nframe=  304 fps= 28 q=49.0 size=    1024KiB time=00:00:02.51 bitrate=3333.4kbits/s speed=0.23x elapsed=0:00:10.95    \nframe=  321 fps= 28 q=50.0 size=    1024KiB time=00:00:02.65 bitrate=3155.7kbits/s speed=0.232x elapsed=0:00:11.48    \nframe=  339 fps= 28 q=49.0 size=    1024KiB time=00:00:02.80 bitrate=2987.2kbits/s speed=0.234x elapsed=0:00:11.99    \nframe=  357 fps= 29 q=50.0 size=    1024KiB time=00:00:02.95 bitrate=2835.7kbits/s speed=0.236x elapsed=0:00:12.52    \nframe=  376 fps= 29 q=50.0 size=    1024KiB time=00:00:03.10 bitrate=2706.1kbits/s speed=0.237x elapsed=0:00:13.06    \nframe=  391 fps= 29 q=49.0 size=    1280KiB time=00:00:03.24 bitrate=3234.8kbits/s speed=0.239x elapsed=0:00:13.58    \nframe=  409 fps= 29 q=50.0 size=    1280KiB time=00:00:03.38 bitrate=3099.4kbits/s speed=0.24x elapsed=0:00:14.09    \nframe=  425 fps= 29 q=50.0 size=    1280KiB time=00:00:03.52 bitrate=2974.8kbits/s speed=0.241x elapsed=0:00:14.62    \nframe=  446 fps= 29 q=50.0 size=    1280KiB time=00:00:03.70 bitrate=2834.1kbits/s speed=0.244x elapsed=0:00:15.15    \nframe=  465 fps= 30 q=49.0 size=    1536KiB time=00:00:03.85 bitrate=3261.3kbits/s speed=0.246x elapsed=0:00:15.67    \nframe=  481 fps= 30 q=49.0 size=    1536KiB time=00:00:03.99 bitrate=3152.4kbits/s speed=0.247x elapsed=0:00:16.19    \nframe=  500 fps= 30 q=48.0 size=    1536KiB time=00:00:04.15 bitrate=3032.1kbits/s speed=0.248x elapsed=0:00:16.70    \nframe=  518 fps= 30 q=48.0 size=    1536KiB time=00:00:04.30 bitrate=2926.3kbits/s speed=0.25x elapsed=0:00:17.22    \nframe=  547 fps= 31 q=48.0 size=    1536KiB time=00:00:04.54 bitrate=2770.6kbits/s speed=0.256x elapsed=0:00:17.74    \nframe=  585 fps= 32 q=-1.0 size=    1792KiB time=00:00:04.85 bitrate=3026.9kbits/s speed=0.266x elapsed=0:00:18.26    \n[mp4 @ 00000222a6049b40] Starting second pass: moving the moov atom to the beginning of the file\n[out#0/mp4 @ 00000222a6049a00] video:1891KiB audio:0KiB subtitle:0KiB other streams:0KiB global headers:0KiB muxing overhead: 0.403357%\nframe=  600 fps= 33 q=-1.0 Lsize=    1899KiB time=00:00:04.98 bitrate=3121.3kbits/s speed=0.27x elapsed=0:00:18.44    \n[libx264 @ 00000222a604cac0] frame I:3     Avg QP:41.44  size: 26231\n[libx264 @ 00000222a604cac0] frame P:188   Avg QP:44.29  size:  5605\n[libx264 @ 00000222a604cac0] frame B:409   Avg QP:46.92  size:  1964\n[libx264 @ 00000222a604cac0] consecutive B-frames:  1.7% 16.7% 17.0% 64.7%\n[libx264 @ 00000222a604cac0] mb I  I16..4: 28.6% 68.3%  3.0%\n[libx264 @ 00000222a604cac0] mb P  I16..4:  2.6%  2.8%  0.0%  P16..4: 21.0%  1.3%  1.6%  0.0%  0.0%    skip:70.8%\n[libx264 @ 00000222a604cac0] mb B  I16..4:  0.0%  0.1%  0.0%  B16..8: 20.4%  0.5%  0.0%  direct: 0.1%  skip:78.9%  L0:35.7% L1:64.1% BI: 0.2%\n[libx264 @ 00000222a604cac0] 8x8 transform intra:55.7% inter:94.4%\n[libx264 @ 00000222a604cac0] direct mvs  spatial:97.6% temporal:2.4%\n[libx264 @ 00000222a604cac0] coded y,uvDC,uvAC intra: 15.0% 28.6% 3.6% inter: 0.7% 1.9% 0.0%\n[libx264 @ 00000222a604cac0] i16 v,h,dc,p: 42% 35%  5% 18%\n[libx264 @ 00000222a604cac0] i8 v,h,dc,ddl,ddr,vr,hd,vl,hu: 17%  8% 30%  6%  9%  9%  9%  6%  6%\n[libx264 @ 00000222a604cac0] i4 v,h,dc,ddl,ddr,vr,hd,vl,hu: 27% 12% 13%  7%  9% 10%  8%  6%  9%\n[libx264 @ 00000222a604cac0] i8c dc,h,v,p: 73% 17%  9%  2%\n[libx264 @ 00000222a604cac0] Weighted P-Frames: Y:0.0% UV:0.0%\n[libx264 @ 00000222a604cac0] ref P L0: 62.4%  5.7% 18.2%  6.4%  7.1%  0.2%\n[libx264 @ 00000222a604cac0] ref B L0: 87.5%  8.0%  3.7%  0.9%\n[libx264 @ 00000222a604cac0] ref B L1: 97.6%  2.4%\n[libx264 @ 00000222a604cac0] kb/s:3097.17\n",
  "seconds": 18.65113115310669,
  "probe_out": {}
}